<?xml version="1.0" standalone="no"?>
<!DOCTYPE svg PUBLIC "-//W3C//DTD SVG 1.1//EN" "http://www.w3.org/Graphics/SVG/1.1/DTD/svg11.dtd">
<!--Generator: Xara Designer (www.xara.com), SVG filter version: 6.2.0.0-->
<svg stroke-width="0.501" stroke-linejoin="bevel" fill-rule="evenodd" xmlns:xlink="http://www.w3.org/1999/xlink" xmlns="http://www.w3.org/2000/svg" version="1.1" overflow="visible" width="612pt" height="792pt" viewBox="0 0 612 792">
 <defs>
	</defs>
 <g id="Document" fill="none" stroke="black" font-family="Times New Roman" font-size="16" transform="scale(1 -1)">
  <g id="Spread" transform="translate(0 -792)">
   <g id="Layer 1">
    <g id="Group" stroke-linejoin="miter" stroke="none" stroke-width="0.098" stroke-miterlimit="79.8403193612775">
     <g id="Group_1">
      <path d="M 29.681,750.42 C 32.246,760.789 42.73,767.111 53.097,764.545 C 63.465,761.98 69.787,751.497 67.222,741.129 C 64.656,730.762 54.173,724.438 43.805,727.004 C 33.438,729.569 27.113,740.053 29.681,750.42" fill="#f2f2f2"/>
      <g id="Group_2">
       <path d="M 41.974,763.996 C 36.07,761.892 31.299,756.962 29.681,750.42 C 27.268,740.678 32.707,730.834 41.974,727.554 L 41.974,763.996 Z" fill="#009246" marker-start="none" marker-end="none"/>
       <path d="M 54.959,763.985 L 54.958,727.564 C 60.849,729.675 65.606,734.599 67.222,741.129 C 69.629,750.861 64.208,760.693 54.959,763.985" fill="#ce2b37"/>
      </g>
     </g>
    </g>
   </g>
  </g>
 </g>
</svg>
